<svg width="219" height="52" viewBox="0 0 219 52" fill="none" xmlns="http://www.w3.org/2000/svg">
<path d="M8.61593 51.2778H0V0.722222H10.9135C17.0165 0.722222 22.0424 5.77778 22.0424 11.9167V19.1389C22.0424 25.2778 17.0165 30.3333 10.9135 30.3333H8.61593V51.2778ZM8.61593 9.38889V21.6667H10.9135C12.2059 21.6667 13.4265 20.5111 13.4265 19.1389V11.9167C13.4265 10.5444 12.2059 9.38889 10.9135 9.38889H8.61593Z" fill="white"/>
<path d="M27.4874 41.0222V10.9778C27.4874 4.98333 32.3698 0 38.3291 0C44.5039 0 49.6016 5.2 49.6016 11.3389V40.6611C49.6016 46.8 44.5039 52 38.3291 52C32.3698 52 27.4874 47.0167 27.4874 41.0222ZM38.3291 8.73889C37.1803 8.73889 36.1751 9.82222 36.1751 10.9778V41.0222C36.1751 42.1778 37.1803 43.2611 38.3291 43.2611C39.6933 43.2611 40.9139 42.0333 40.9139 40.6611V11.3389C40.9139 9.96667 39.6933 8.73889 38.3291 8.73889Z" fill="white"/>
<path d="M55.8846 41.3111V10.7611C55.8846 4.18889 61.126 0 67.3725 0C73.2601 0 78.0707 4.91111 78.0707 10.7611V17.4056H69.3829V10.7611C69.3829 9.1 67.9469 8.81111 66.5827 8.81111C65.5057 8.81111 64.5724 9.75 64.5724 10.7611V41.3111C64.5724 42.9722 66.0083 43.2611 67.3725 43.2611C68.4495 43.2611 69.3829 42.3222 69.3829 41.3111V34.5222H78.0707V41.3111C78.0707 47.8833 72.8293 52 66.5827 52C60.6952 52 55.8846 47.1611 55.8846 41.3111Z" fill="white"/>
<path d="M92.4053 51.2778H83.7894V0.722222H103.319V9.38889H92.4053V51.2778Z" fill="white"/>
<path d="M116.946 51.2778H108.33V0.722222H119.244C125.347 0.722222 130.373 5.77778 130.373 11.9167V19.1389C130.373 25.2778 125.347 30.3333 119.244 30.3333H116.946V51.2778ZM116.946 9.38889V21.6667H119.244C120.536 21.6667 121.757 20.5111 121.757 19.1389V11.9167C121.757 10.5444 120.536 9.38889 119.244 9.38889H116.946Z" fill="white"/>
<path d="M135.746 0.722222H143.357V25.5667L150.034 0.722222H157.716V51.2778H150.034V26.5056L143.428 51.2778H135.746V0.722222Z" fill="white"/>
<path d="M164.788 51.7833L163.495 43.8389C166.798 43.3333 167.947 39.65 168.09 36.7611L169.957 0.866668H190.492V51.2778H182.594V8.81111H177.496L175.988 37.3389C175.629 44.0556 171.824 50.6278 164.788 51.7833Z" fill="white"/>
<path d="M196.958 51.2778V0.722222H205.573V21.6667H207.871C213.974 21.6667 219 26.7222 219 32.8611V40.0833C219 46.2222 213.974 51.2778 207.871 51.2778H196.958ZM205.573 30.3333V42.6111H207.871C209.163 42.6111 210.384 41.4556 210.384 40.0833V32.8611C210.384 31.4889 209.163 30.3333 207.871 30.3333H205.573Z" fill="white"/>
</svg>
