<svg width="78" height="11" viewBox="0 0 78 11" fill="none" xmlns="http://www.w3.org/2000/svg">
<path d="M2.55111 3.73845C2.63693 5.97741 2.84756 8.21634 2.80856 10.4626C2.80075 10.7772 2.71493 10.8431 2.40288 10.8284C1.71634 10.8065 1.02201 10.8138 0.335467 10.8284C0.0936187 10.8358 0 10.7918 0 10.5358C0.0156031 7.17736 0.00780156 3.82627 0 0.475166C0 0.24103 0.0780156 0.197129 0.304262 0.197129C1.31846 0.211763 2.33267 0.211763 3.34688 0.197129C3.58093 0.197129 3.67453 0.255663 3.75256 0.475166C4.49369 2.6629 5.24266 4.85061 5.99939 7.03832C6.03841 7.16273 6.06181 7.30174 6.20223 7.43345C6.57673 6.33593 6.94338 5.26768 7.31007 4.19943C7.73135 2.95556 8.16043 1.71171 8.57393 0.467851C8.64414 0.26298 8.73774 0.189812 8.97961 0.197129C9.99379 0.211763 11.008 0.211763 12.0222 0.204446C12.2563 0.204446 12.3265 0.248347 12.3265 0.482485C12.3187 3.83358 12.3187 7.18467 12.3265 10.5431C12.3265 10.748 12.3109 10.8431 12.0456 10.8358C11.3045 10.8138 10.5633 10.8211 9.82216 10.8358C9.61153 10.8358 9.5335 10.7918 9.5335 10.5797C9.56471 8.69926 9.58032 6.82615 9.72074 4.95304C9.74416 4.6238 9.74416 4.29453 9.75976 3.96529C9.76755 3.85552 9.89237 3.72381 9.68174 3.6726C8.90937 5.78715 8.14482 7.90904 7.37249 10.0236C7.07601 10.8358 7.08383 10.8358 6.18665 10.8358C5.87457 10.8358 5.4845 10.9236 5.27387 10.7845C5.07103 10.6455 5.03981 10.265 4.94618 9.99432C4.17385 7.84318 3.40148 5.71399 2.62912 3.5848C2.44969 3.56286 2.55111 3.6726 2.55111 3.73845Z" fill="#4E5661"/>
<path d="M77.9922 5.52379C77.9922 7.1847 77.9844 8.8383 78 10.4992C78 10.7407 77.9531 10.8358 77.6645 10.8285C76.9623 10.8065 76.2603 10.8138 75.5582 10.8285C75.3164 10.8358 75.2539 10.7773 75.2539 10.5504C75.2695 9.27001 75.246 7.98956 75.2695 6.70911C75.2773 6.40914 75.176 6.35059 74.8795 6.35059C73.7715 6.36523 72.6716 6.36523 71.5636 6.35059C71.3062 6.35059 71.2361 6.40914 71.2361 6.65059C71.2439 7.94565 71.2361 9.23342 71.2439 10.5285C71.2439 10.7773 71.1892 10.8651 70.9084 10.8578C70.1907 10.8358 69.4807 10.8431 68.763 10.8504C68.5522 10.8504 68.4431 10.8285 68.4431 10.5797C68.4509 7.19934 68.4509 3.8263 68.4431 0.445941C68.4431 0.21912 68.5366 0.19717 68.7317 0.19717C69.4729 0.204487 70.2141 0.211803 70.9553 0.19717C71.2205 0.189853 71.2439 0.284972 71.2439 0.489842C71.2361 1.68248 71.2439 2.88243 71.2283 4.07508C71.2283 4.33117 71.2984 4.40433 71.5714 4.39702C72.6872 4.38238 73.8106 4.38238 74.9261 4.39702C75.207 4.40433 75.2695 4.32383 75.2617 4.07508C75.246 2.88976 75.2617 1.71175 75.246 0.526427C75.246 0.284972 75.2851 0.189853 75.5738 0.19717C76.2602 0.21912 76.9545 0.211803 77.641 0.19717C77.9065 0.189853 77.9922 0.255704 77.9844 0.511792C77.9844 2.18002 77.9922 3.84825 77.9922 5.52379Z" fill="#4E5661"/>
<path d="M41.9099 0.197127C42.854 0.197127 43.7979 0.204444 44.742 0.197127C44.9838 0.197127 44.9603 0.37273 44.9994 0.489798C45.4207 1.90926 45.8341 3.33603 46.2554 4.76282C46.5518 5.77985 46.8483 6.78955 47.1682 7.87244C47.3712 7.17734 47.5504 6.53347 47.7377 5.89692C48.2681 4.09697 48.7988 2.30437 49.3214 0.504433C49.3918 0.262979 49.5009 0.182494 49.7661 0.189811C50.5464 0.211761 51.3264 0.204444 52.1066 0.189811C52.4109 0.182494 52.481 0.233711 52.3719 0.526383C51.4824 2.97751 50.6087 5.43594 49.7271 7.88707C49.4074 8.77973 49.0718 9.67238 48.7597 10.565C48.6897 10.7626 48.5959 10.8211 48.3776 10.8211C47.5582 10.8065 46.7392 10.8138 45.9201 10.8211C45.7562 10.8211 45.6471 10.8065 45.5767 10.6236C44.352 7.17004 43.127 3.71651 41.8945 0.262979C41.9021 0.248345 41.9021 0.233711 41.9099 0.197127Z" fill="#4E5661"/>
<path d="M67.0777 3.87019C66.2117 3.87019 65.3692 3.86288 64.5267 3.87019C64.3394 3.87019 64.3005 3.79703 64.2771 3.63607C64.082 2.31172 63.0133 1.69711 61.6557 2.1288C60.9693 2.3483 60.6181 2.86049 60.4855 3.48239C60.1968 4.80675 60.2046 6.13839 60.462 7.47006C60.5246 7.79199 60.6728 8.09199 60.8989 8.35538C61.211 8.72856 61.5932 8.97001 62.1239 8.94073C62.436 8.9261 62.7478 8.95537 63.0521 8.88221C63.8089 8.70659 64.1523 8.18712 64.2458 7.51397C64.2771 7.27983 64.355 7.22128 64.597 7.22861C65.2757 7.24325 65.9465 7.25055 66.6254 7.22128C66.9763 7.20667 67.0389 7.33104 66.992 7.6164C66.7658 9.08708 65.8999 10.0968 64.4331 10.6016C63.1537 11.0406 61.8118 11.1724 60.5089 10.7114C58.7848 10.1041 57.8876 8.81636 57.6145 7.16276C57.4038 5.86036 57.396 4.54334 57.755 3.24095C58.3945 0.950794 60.3685 -0.139407 62.7478 0.0142458C64.2224 0.109364 65.4552 0.636172 66.3211 1.79954C66.7737 2.42147 66.9219 3.13121 67.0777 3.87019Z" fill="#4E5661"/>
<path d="M24.3175 10.8211C23.4359 10.8211 22.5465 10.8138 21.6649 10.8285C21.3997 10.8358 21.4153 10.6455 21.3763 10.5212C20.5649 8.11391 19.7535 5.69938 18.9422 3.29214C18.9344 3.26289 18.911 3.23362 18.8876 3.17507C18.7316 3.31411 18.7316 3.4897 18.6847 3.63605C17.9358 5.94083 17.1869 8.23831 16.4457 10.5504C16.3833 10.748 16.3131 10.8431 16.0634 10.8358C15.1897 10.8138 14.3237 10.8285 13.4031 10.8285C13.84 9.7236 14.2613 8.63341 14.6903 7.55052C15.6109 5.20183 16.5393 2.85313 17.4521 0.50445C17.5457 0.270314 17.6549 0.197145 17.9202 0.204462C18.5833 0.226412 19.2464 0.211779 19.9096 0.204462C20.0812 0.204462 20.1904 0.219095 20.2606 0.394698C21.6103 3.84091 22.9756 7.28713 24.3331 10.7333C24.3409 10.7407 24.3331 10.7553 24.3175 10.8211Z" fill="#4E5661"/>
<path d="M24.9416 5.50918C24.9416 3.84096 24.9494 2.17272 24.9338 0.504497C24.9338 0.277674 24.9806 0.189874 25.2459 0.19719C25.9636 0.219141 26.6736 0.219141 27.3914 0.19719C27.6957 0.189874 27.7501 0.284993 27.7501 0.548395C27.7345 3.16781 27.7501 5.78723 27.7267 8.40665C27.7267 8.75053 27.7814 8.87491 28.1948 8.8676C29.5055 8.83833 30.8162 8.86027 32.1268 8.85296C32.3686 8.85296 32.4624 8.89685 32.4546 9.14563C32.4311 9.62855 32.4389 10.1188 32.4546 10.609C32.4624 10.7846 32.3999 10.8358 32.2126 10.8358C29.8645 10.8285 27.5083 10.8285 25.1601 10.8358C24.8636 10.8358 24.9416 10.6675 24.9416 10.5285C24.9416 8.84563 24.9416 7.17742 24.9416 5.50918Z" fill="#4E5661"/>
<path d="M56.3195 5.52382C56.3195 7.17009 56.3039 8.81639 56.3273 10.4553C56.3351 10.7919 56.2257 10.8504 55.8983 10.8431C55.235 10.8212 54.5719 10.8212 53.9089 10.8431C53.6203 10.8504 53.5734 10.7627 53.5734 10.5212C53.5812 7.18473 53.5812 3.84097 53.5734 0.504497C53.5734 0.284993 53.6125 0.189875 53.8855 0.197191C54.6032 0.219142 55.3131 0.219142 56.0309 0.197191C56.2883 0.189875 56.3195 0.277677 56.3195 0.489863C56.3195 2.16541 56.3195 3.84827 56.3195 5.52382Z" fill="#4E5661"/>
<path d="M37.3618 2.15865C36.1759 2.15865 34.9978 2.15133 33.8119 2.16596C33.5311 2.16596 33.4141 2.11475 33.4297 1.82939C33.4532 1.38307 33.4454 0.929425 33.4297 0.475784C33.4219 0.285549 33.461 0.19043 33.7027 0.19043C36.1212 0.197746 38.5398 0.197746 40.9504 0.19043C41.1765 0.19043 41.2391 0.263598 41.2313 0.461152C41.2156 0.922109 41.2156 1.39038 41.2313 1.85134C41.2391 2.10011 41.1455 2.15865 40.8957 2.15865C39.7255 2.15865 38.5476 2.15865 37.3618 2.15865Z" fill="#FFE600"/>
<path d="M33.461 8.91935C33.5545 8.78034 33.6949 8.8535 33.8119 8.8535C36.1602 8.84619 38.5164 8.8535 40.8647 8.84619C41.1844 8.84619 41.2703 8.93399 41.2391 9.21202C41.1922 9.73885 41.3016 10.273 41.1844 10.7998C40.9582 10.7559 40.7243 10.7851 40.4979 10.7851C38.5943 10.7851 36.6906 10.7851 34.7873 10.7778C34.3736 10.7778 33.8275 10.9388 33.5858 10.712C33.3206 10.4632 33.5389 9.95102 33.5001 9.55592C33.4844 9.34372 33.5545 9.12422 33.461 8.91935Z" fill="#FFE600"/>
<path d="M41.1844 4.40489C41.3016 4.99024 41.2156 5.5829 41.2313 6.17556C41.2391 6.41701 41.0208 6.34385 40.8803 6.34385C39.7101 6.35116 38.5398 6.34385 37.3774 6.34385C36.1993 6.34385 35.0134 6.34385 33.8354 6.34385C33.7184 6.34385 33.578 6.40237 33.4766 6.2853C33.5467 5.78044 33.5076 5.28291 33.4998 4.77805C33.4923 4.48538 33.5936 4.41222 33.8979 4.41222C36.2928 4.42683 38.6881 4.40489 41.083 4.43416C41.1143 4.43416 41.1534 4.41953 41.1844 4.40489Z" fill="#FFE600"/>
</svg>
