<svg width="19" height="19" viewBox="0 0 19 19" fill="none" xmlns="http://www.w3.org/2000/svg">
<path d="M1.60353 9.02299C1.60353 9.02299 9.5645 5.56553 12.3255 4.34812C13.3839 3.86115 16.9733 2.30286 16.9733 2.30286C16.9733 2.30286 18.6299 1.62111 18.4918 3.2768C18.4458 3.95855 18.0777 6.34468 17.7095 8.9256C17.1573 12.5778 16.5591 16.571 16.5591 16.571C16.5591 16.571 16.4671 17.691 15.6848 17.8858C14.9025 18.0806 13.614 17.204 13.3839 17.0092C13.1999 16.8631 9.93264 14.6718 8.73619 13.6005C8.41407 13.3083 8.04594 12.7239 8.78221 12.0422C10.4388 10.4352 12.4176 8.43863 13.614 7.17252C14.1662 6.58816 14.7184 5.22466 12.4176 6.88034C9.15035 9.26647 5.92915 11.5065 5.92915 11.5065C5.92915 11.5065 5.19287 11.9935 3.81236 11.5552C2.43184 11.1169 0.821243 10.5326 0.821243 10.5326C0.821243 10.5326 -0.283169 9.80213 1.60353 9.02299Z" fill="#35AEE2"/>
<path d="M1.60353 9.02299C1.60353 9.02299 9.5645 5.56553 12.3255 4.34812C13.3839 3.86115 16.9733 2.30286 16.9733 2.30286C16.9733 2.30286 18.6299 1.62111 18.4918 3.2768C18.4458 3.95855 18.0777 6.34468 17.7095 8.9256C17.1573 12.5778 16.5591 16.571 16.5591 16.571C16.5591 16.571 16.4671 17.691 15.6848 17.8858C14.9025 18.0806 13.614 17.204 13.3839 17.0092C13.1999 16.8631 9.93264 14.6718 8.73619 13.6005C8.41407 13.3083 8.04594 12.7239 8.78221 12.0422C10.4388 10.4352 12.4176 8.43863 13.614 7.17252C14.1662 6.58816 14.7184 5.22466 12.4176 6.88034C9.15035 9.26647 5.92915 11.5065 5.92915 11.5065C5.92915 11.5065 5.19287 11.9935 3.81236 11.5552C2.43184 11.1169 0.821243 10.5326 0.821243 10.5326C0.821243 10.5326 -0.283169 9.80213 1.60353 9.02299Z" fill="white"/>
</svg>
